<?xml version="1.0" encoding="UTF-8"?>
<svg id="Layer_1" data-name="Layer 1" xmlns="http://www.w3.org/2000/svg" viewBox="0 0 244.57 258.04">
  <defs>
    <style>
      .cls-1, .cls-2, .cls-3, .cls-4, .cls-5 {
        fill: #c0a4ce;
      }

      .cls-1, .cls-3, .cls-6, .cls-7, .cls-8, .cls-9 {
        stroke-miterlimit: 10;
      }

      .cls-1, .cls-6, .cls-8, .cls-9 {
        stroke: #c0a4ce;
      }

      .cls-10 {
        font-size: 15.54px;
      }

      .cls-10, .cls-7, .cls-11, .cls-8, .cls-9, .cls-12 {
        fill: #fff;
      }

      .cls-2 {
        font-family: CinzelDecorative-Bold, 'Cinzel Decorative';
        font-size: 14.24px;
        font-weight: 700;
      }

      .cls-3, .cls-7 {
        stroke: #fff;
      }

      .cls-6 {
        fill: none;
      }

      .cls-7 {
        stroke-width: 2px;
      }

      .cls-13 {
        letter-spacing: -.02em;
      }

      .cls-5 {
        font-size: 6.27px;
      }

      .cls-14 {
        letter-spacing: -.04em;
      }

      .cls-8 {
        stroke-width: 3px;
      }

      .cls-9 {
        stroke-width: 6px;
      }

      .cls-15 {
        letter-spacing: 0em;
      }

      .cls-12 {
        font-size: 7.55px;
      }

      .cls-16 {
        letter-spacing: .11em;
      }

      .cls-17 {
        letter-spacing: .11em;
      }

      .cls-18 {
        letter-spacing: .11em;
      }

      .cls-19 {
        letter-spacing: .12em;
      }

      .cls-20 {
        letter-spacing: .02em;
      }

      .cls-21 {
        letter-spacing: 0em;
      }
    </style>
  </defs>
  <g>
    <circle class="cls-4" cx="122.29" cy="122.29" r="122.29"/>
    <text class="cls-10" transform="translate(21.8 153.55) rotate(-104.28)"><tspan x="0" y="0">E</tspan></text>
    <text class="cls-10" transform="translate(18.6 140.33) rotate(-95.37)"><tspan x="0" y="0">M</tspan></text>
    <text class="cls-10" transform="translate(17.37 121.48) rotate(-86.49)"><tspan x="0" y="0">P</tspan></text>
    <text class="cls-10" transform="translate(18.49 107.39) rotate(-78.12)"><tspan x="0" y="0">O</tspan></text>
    <text class="cls-10" transform="translate(21.9 91.97) rotate(-68.33)"><tspan x="0" y="0">W</tspan></text>
    <text class="cls-10" transform="translate(30.09 73.17) rotate(-58.98)"><tspan x="0" y="0">E</tspan></text>
    <text class="cls-10" transform="translate(37.31 61.61) rotate(-50.77)"><tspan x="0" y="0">R</tspan></text>
    <text class="cls-10" transform="translate(48.18 49.12) rotate(-43.98)"><tspan x="0" y="0"> </tspan></text>
    <text class="cls-10" transform="translate(54.46 43.34) rotate(-39.34)"><tspan x="0" y="0"> </tspan></text>
    <text class="cls-10" transform="translate(61.15 38.1) rotate(-34.71)"><tspan x="0" y="0"> </tspan></text>
    <text class="cls-10" transform="translate(68.27 33.41) rotate(-30.05)"><tspan x="0" y="0"> </tspan></text>
    <text class="cls-10" transform="translate(75.75 29.31) rotate(-25.38)"><tspan x="0" y="0"> </tspan></text>
    <text class="cls-10" transform="translate(83.54 25.84) rotate(-20.68)"><tspan x="0" y="0"> </tspan></text>
    <text class="cls-10" transform="translate(91.48 22.96) rotate(-14.58)"><tspan x="0" y="0">E</tspan></text>
    <text class="cls-10" transform="translate(104.74 19.76) rotate(-6.36)"><tspan x="0" y="0">X</tspan></text>
    <text class="cls-10" transform="translate(120.36 18.34) rotate(1.93)"><tspan x="0" y="0">C</tspan></text>
    <text class="cls-10" transform="translate(136.05 19.26) rotate(9.91)"><tspan x="0" y="0">E</tspan></text>
    <text class="cls-10" transform="translate(149.45 21.91) rotate(17.48)"><tspan x="0" y="0">L</tspan></text>
    <text class="cls-10" transform="translate(162.57 26.46) rotate(23.63)"><tspan x="0" y="0"> </tspan></text>
    <text class="cls-10" transform="translate(170.28 30.05) rotate(28.3)"><tspan x="0" y="0"> </tspan></text>
    <text class="cls-10" transform="translate(177.7 34.27) rotate(32.97)"><tspan x="0" y="0"> </tspan></text>
    <text class="cls-10" transform="translate(184.73 39.06) rotate(37.61)"><tspan x="0" y="0"> </tspan></text>
    <text class="cls-10" transform="translate(191.37 44.42) rotate(42.25)"><tspan x="0" y="0"> </tspan></text>
    <text class="cls-10" transform="translate(197.55 50.3) rotate(46.88)"><tspan x="0" y="0"> </tspan></text>
    <text class="cls-10" transform="translate(203.25 56.56) rotate(52.91)"><tspan x="0" y="0">E</tspan></text>
    <text class="cls-10" transform="translate(211.29 67.56) rotate(61.15)"><tspan x="0" y="0">D</tspan></text>
    <text class="cls-10" transform="translate(218.95 82.24) rotate(70.15)"><tspan x="0" y="0">U</tspan></text>
    <text class="cls-10" transform="translate(224.11 97.66) rotate(78.95)"><tspan x="0" y="0">C</tspan></text>
    <text class="cls-10" transform="translate(226.76 113) rotate(87.48)"><tspan x="0" y="0">A</tspan></text>
    <text class="cls-10" transform="translate(227.17 127.43) rotate(95.15)"><tspan x="0" y="0">T</tspan></text>
    <text class="cls-10" transform="translate(225.39 142.84) rotate(103.13)"><tspan x="0" y="0">E</tspan></text>
    <g>
      <polygon class="cls-11" points="24.75 164.65 25.69 169.56 30.71 170.3 26.26 172.65 27.18 177.62 23.47 174.13 18.97 176.42 21.18 171.85 17.46 168.39 22.54 169.14 24.75 164.65"/>
      <polygon class="cls-11" points="34.18 181.74 35.21 186.07 39.58 186.48 35.84 188.8 36.85 193.18 33.49 190.25 29.71 192.51 31.41 188.33 28.05 185.43 32.47 185.85 34.18 181.74"/>
      <polygon class="cls-11" points="48.4 197.92 49.3 201.69 53.1 202.05 49.85 204.06 50.73 207.88 47.8 205.33 44.5 207.3 45.99 203.66 43.06 201.13 46.91 201.5 48.4 197.92"/>
    </g>
    <g>
      <polygon class="cls-11" points="222.49 164.32 221.55 169.23 216.53 169.96 220.98 172.32 220.06 177.29 223.77 173.8 228.27 176.09 226.06 171.52 229.78 168.06 224.7 168.81 222.49 164.32"/>
      <polygon class="cls-11" points="213.06 181.41 212.03 185.74 207.66 186.15 211.4 188.46 210.39 192.85 213.75 189.92 217.53 192.18 215.83 188 219.19 185.09 214.77 185.52 213.06 181.41"/>
      <polygon class="cls-11" points="198.84 197.58 197.94 201.36 194.14 201.72 197.39 203.73 196.51 207.55 199.44 205 202.74 206.96 201.25 203.33 204.18 200.79 200.33 201.17 198.84 197.58"/>
    </g>
  </g>
  <text/>
  <circle class="cls-11" cx="122.29" cy="122.29" r="98.51"/>
  <path class="cls-3" d="M207.52,243.33c-6.72-.65-13.61-1.24-20.67-1.76-9.97-.73-20.28-1.3-30.9-1.69-11.83-.43-23.27-.6-34.29-.56-13.47-.02-27.68.28-42.55,1-6.54.32-33.94,2.31-41,3v-26c25.18-2.99,54.3-5.09,86.64-5,30.76.08,58.56,2.13,82.77,5v26Z"/>
  <polygon class="cls-3" points="236.91 229.74 225.69 240.57 236.91 254.24 191.14 249.46 191.14 244.13 210.48 245.85 210.48 226.43 236.91 229.74"/>
  <polygon class="cls-3" points="53.75 244.41 35.18 246.04 35.18 226.48 8.19 230.04 19.37 240.7 8.19 254.18 53.75 249.59 53.75 244.41"/>
  <line class="cls-7" x1="196.69" y1="229.87" x2="202.77" y2="230.83"/>
  <line class="cls-7" x1="45.05" y1="231.31" x2="51.12" y2="230.35"/>
  <text class="cls-12" transform="translate(56.74 231.09) rotate(-6.12)"><tspan x="0" y="0">N</tspan></text>
  <text class="cls-12" transform="translate(64.74 230.25) rotate(-5.36)"><tspan x="0" y="0">U</tspan></text>
  <text class="cls-12" transform="translate(72.3 229.56) rotate(-4.62)"><tspan x="0" y="0">R</tspan></text>
  <text class="cls-12" transform="translate(79.13 229.01) rotate(-3.97)"><tspan x="0" y="0">T</tspan></text>
  <text class="cls-12" transform="translate(86.27 228.53) rotate(-3.24)"><tspan x="0" y="0">U</tspan></text>
  <text class="cls-12" transform="translate(93.85 228.11) rotate(-2.5)"><tspan x="0" y="0">R</tspan></text>
  <text class="cls-12" transform="translate(101.44 227.8) rotate(-1.91)"><tspan x="0" y="0">I</tspan></text>
  <text class="cls-12" transform="translate(106.08 227.64) rotate(-1.29)"><tspan x="0" y="0">N</tspan></text>
  <text class="cls-12" transform="translate(114.14 227.48) rotate(-.53)"><tspan x="0" y="0">G</tspan></text>
  <text class="cls-12" transform="translate(121.58 227.43) rotate(.01)"><tspan x="0" y="0"> </tspan></text>
  <text class="cls-12" transform="translate(125.25 227.43) rotate(.5)"><tspan x="0" y="0">E</tspan></text>
  <text class="cls-12" transform="translate(131.55 227.49) rotate(1.18)"><tspan x="0" y="0">X</tspan></text>
  <text class="cls-12" transform="translate(138.78 227.65) rotate(1.87)"><tspan x="0" y="0">C</tspan></text>
  <text class="cls-12" transform="translate(146.12 227.91) rotate(2.54)"><tspan x="0" y="0">E</tspan></text>
  <text class="cls-12" transform="translate(152.4 228.2) rotate(3.16)"><tspan x="0" y="0">L</tspan></text>
  <text class="cls-12" transform="translate(158.77 228.56) rotate(3.78)"><tspan x="0" y="0">L</tspan></text>
  <text class="cls-12" transform="translate(165.15 228.99) rotate(4.4)"><tspan x="0" y="0">E</tspan></text>
  <text class="cls-12" transform="translate(171.42 229.48) rotate(5.1)"><tspan x="0" y="0">N</tspan></text>
  <text class="cls-12" transform="translate(179.46 230.22) rotate(5.85)"><tspan x="0" y="0">C</tspan></text>
  <text class="cls-12" transform="translate(186.74 230.98) rotate(6.52)"><tspan x="0" y="0">E</tspan></text>
  <path class="cls-9" d="M124.27,206.26s-.04-9.42,27.64-20.62c38.32-15.52,43.07-25.16,44.21-35.23,1.14-10.07-6.82-19.36-8.07-33.52-1.25-14.16,9.36-34.71,9.36-34.71l-19.14-30.86c-37.2,8.36-54.69-4.99-54.69-4.99,0,0-17.37,13.49-54.64,5.45l-18.88,31.02s10.78,20.46,9.65,34.63c-1.13,14.17-9.01,23.52-7.78,33.58,1.23,10.06,6.06,19.66,44.51,34.86,27.77,10.97,27.82,20.39,27.82,20.39Z"/>
  <path class="cls-4" d="M124.6,144.14s-1.31-5.71-10.7-2.73c-9.39,2.99-7.82,2.46-7.82,2.46l-.1.73h18.62v-.47Z"/>
  <text class="cls-2" transform="translate(85.22 77.3) rotate(-.08) scale(1.19 1) skewX(-.13)"><tspan class="cls-13" x="0" y="0">M</tspan><tspan class="cls-14" x="13.49" y="0">Y</tspan><tspan class="cls-21" x="22.41" y="0">S</tspan><tspan class="cls-15" x="31.36" y="0">O</tspan><tspan class="cls-21" x="44.5" y="0">RE</tspan></text>
  <text class="cls-5" transform="translate(70.14 94.56) rotate(-.08) scale(1.14 1) skewX(-.13)"><tspan class="cls-18" x="0" y="0">INTER</tspan><tspan class="cls-16" x="23.05" y="0">N</tspan><tspan class="cls-20" x="28.72" y="0">A</tspan><tspan class="cls-18" x="33.22" y="0">TIO</tspan><tspan class="cls-16" x="46.52" y="0">NA</tspan><tspan class="cls-17" x="57.26" y="0">L SCH</tspan><tspan class="cls-19" x="78.22" y="0">O</tspan><tspan class="cls-17" x="83.74" y="0">OL</tspan></text>
  <line class="cls-1" x1="79.44" y1="83.77" x2="166.68" y2="83.8"/>
  <path class="cls-4" d="M123.79,144.14s1.31-5.71,10.7-2.73c9.39,2.99,7.82,2.46,7.82,2.46l.1.73h-18.62v-.47Z"/>
  <path class="cls-4" d="M141.1,144.68c1.19-.1,2.26-.98,2.33-2.25.03-.49-.21-.93-.38-1.4-.92-2.53-1.83-5.05-2.75-7.58l-1.34-3.7c-.17-.46-.29-1.03-.53-1.46-.43-.76-1.63-1.19-2.41-1.51-1.05-.43-2.16-.68-3.3-.7-1.48-.02-2.96.38-4.23,1.12-.29.17-.74.39-.95.66-.33.41.09-.44.27-.04,0-.02-.25,0-.28,0-1.02-.23-2.35,0-3.39,0h-4.3c-.41,0-.9-.07-1.3,0-.55.1.23.33.02.07-.59-.75-1.96-1.23-2.82-1.48-1.81-.54-3.75-.38-5.5.29-1.07.41-2.33.85-2.75,1.98-.34.91-.66,1.83-1,2.74l-3.22,8.88c-.21.59-.63,1.3-.67,1.94-.09,1.33,1.17,2.34,2.36,2.44.8.07.8-1.18,0-1.25-.66-.06-1.07-.63-1.12-1.27.03.4.02.11.12-.11.32-.7.54-1.48.8-2.21.87-2.39,1.73-4.77,2.6-7.16l1.05-2.89c.1-.28.17-.6.31-.86.17-.32.13-.12.23-.2,1.54-1.29,4.17-1.67,6.07-1.21.99.24,1.82.69,2.64,1.26.43.3.68.3,1.2.3h3.18c1.26,0,2.52,0,3.78,0,.61,0,1.37.12,1.98,0,.53-.11,1-.62,1.47-.88,1.32-.73,2.85-1,4.34-.79,1.21.17,2.21.68,3.29,1.21.47.23.19-.11.44.32.36.63.53,1.47.78,2.15l2.86,7.88,1.06,2.91c.06.17.15.34.19.52-.09-.43.01-.06-.1.15-.26.49-.37.83-1.03.89-.8.07-.8,1.32,0,1.25h0Z"/>
  <g>
    <path class="cls-4" d="M129.68,105.64c-.11-.94-.62-1.85-1.27-2.63.34,1.14.06,2.68-1.11,3.47-.7.47-1.57.79-2.42,1.07-.48.15-2.2.7-2.37,2.09,0,.06-.04.11-.05.17-.17-.64-.02-1.32.42-1.87.57-.71,1.53-1.13,2.42-1.55.9-.43,1.91-.91,2.21-1.71.73-1.94-.67-3.39-.97-3.68.13,1.01-.29,2.06-1.13,2.81-.91.83-2.29,1.13-3.3,1.85-2.14,1.53-2.09,4.04-.49,5.82.52.58,1.23,1.12,1.9,1.55-.12-1.17.65-2.11,1.83-2.73.7-.37,1.47-.65,2.15-1.04,1.45-.83,2.35-2.17,2.17-3.61Z"/>
    <path class="cls-4" d="M117.72,113.6h12.12c0,1.34-1.09,2.42-2.42,2.42h-7.28c-1.34,0-2.42-1.09-2.42-2.42h0Z"/>
    <path class="cls-4" d="M119.46,116.58h8.66c0,1.34-1.09,2.42-2.42,2.42h-3.81c-1.34,0-2.42-1.09-2.42-2.42h0Z"/>
    <polygon class="cls-4" points="125.39 135.38 122.19 135.38 121.01 119.63 126.56 119.63 125.39 135.38"/>
  </g>
  <line class="cls-6" x1="123.79" y1="135.64" x2="123.79" y2="144.14"/>
  <g>
    <path class="cls-8" d="M126.06,193.14c1.94-2.35,5.69-5.55,12.91-9.16h-12.91v9.16Z"/>
    <path class="cls-8" d="M121.61,192.82v-8.85h-12.65c6.91,3.45,10.64,6.53,12.65,8.85Z"/>
    <path class="cls-8" d="M109.34,164.2h12.27v-10.27c-2.76,1.73-7.9,5.3-12.27,10.27Z"/>
    <path class="cls-8" d="M126.06,154.26v9.94h11.74c-4.11-4.67-8.89-8.1-11.74-9.94Z"/>
    <path class="cls-8" d="M140.02,166.94h-13.96v14.28h18.94c.16-.07.32-.13.48-.2-.02-.35-.04-.69-.08-1.04-.48-4.88-2.62-9.28-5.39-13.04Z"/>
    <path class="cls-8" d="M101.68,180.71c.43.17.84.34,1.25.52h18.68v-14.28h-14.49c-2.77,3.76-4.91,8.16-5.39,13.04-.02.24-.04.48-.05.72Z"/>
    <path class="cls-8" d="M97.39,179.04c.59-4.48,2.43-8.54,4.83-12.09h-20.6c-1.2,1.18-2.27,2.41-3.19,3.7,4.92,2.58,11.12,5.36,18.96,8.4Z"/>
    <path class="cls-8" d="M144.93,166.94c2.45,3.63,4.31,7.79,4.86,12.39,6.81-2.62,12.4-5.04,17.01-7.31-1.11-1.78-2.49-3.48-4.12-5.07h-17.75Z"/>
    <path class="cls-8" d="M142.89,164.2h16.63c-6.98-5.39-16.94-9.24-28.33-10.59,3.36,2.31,7.92,5.92,11.7,10.59Z"/>
    <path class="cls-8" d="M104.25,164.2c3.96-4.89,7.64-8.3,11.04-10.59-12.76.95-22.86,4.69-30.51,10.59h19.47Z"/>
  </g>
  <g>
    <path class="cls-4" d="M118.97,160.6s-24.33-6.21-26.41-27.09c0,0,9.59,14.61,17.66,16.39,0,0,1.46-.73-.63-3.55,0,0-7.44-2.4-7.09-7.05,0,0,6.05,3.97,9.24,4.49,0,0,7.09,2.82,7.92,10.59l-.28,6.21h-.42Z"/>
    <path class="cls-4" d="M128.61,160.6s24.33-6.21,26.41-27.09c0,0-9.59,14.61-17.66,16.39,0,0-1.46-.73.63-3.55,0,0,7.44-2.4,7.09-7.05,0,0-6.05,3.97-9.24,4.49,0,0-7.09,2.82-7.92,10.59l.28,6.21h.42Z"/>
  </g>
</svg>